Coordinates
version=1
nRows=7
nColumns=40
inDegrees=yes

Units are S.I. units (second, meters, Newtons, ...)
If the header above contains a line with 'inDegrees', this indicates whether rotational values are in degrees (yes) or radians (no).

endheader
time	pelvis_tilt	pelvis_list	pelvis_rotation	pelvis_tx	pelvis_ty	pelvis_tz	hip_flexion_r	hip_adduction_r	hip_rotation_r	knee_angle_r	knee_angle_r_beta	ankle_angle_r	subtalar_angle_r	mtp_angle_r	hip_flexion_l	hip_adduction_l	hip_rotation_l	knee_angle_l	knee_angle_l_beta	ankle_angle_l	subtalar_angle_l	mtp_angle_l	lumbar_extension	lumbar_bending	lumbar_rotation	arm_flex_r	arm_add_r	arm_rot_r	elbow_flex_r	pro_sup_r	wrist_flex_r	wrist_dev_r	arm_flex_l	arm_add_l	arm_rot_l	elbow_flex_l	pro_sup_l	wrist_flex_l	wrist_dev_l
      0.15000000	      1.16203693	     -7.46223082	     81.65017829	      0.23814506	      0.87808864	      1.96589266	    -17.15340182	      1.20994095	      8.37684837	     -7.59455048	     -0.13254991	     15.25496225	      0.00000000	      0.00000000	     37.96242822	     -8.32882326	     -5.12542046	      6.12086316	      0.10682922	     -2.19971400	      0.00000000	      0.00000000	     -4.23342966	      2.23390955	      5.92156238	      0.00000000	      0.00000000	      0.00000000	      0.00000000	      0.00000000	      0.00000000	      0.00000000	      0.00000000	      0.00000000	      0.00000000	      0.00000000	      0.00000000	      0.00000000	      0.00000000
      0.16000000	      1.30192085	     -7.48478476	     81.55814232	      0.23759703	      0.87428422	      1.95129377	    -18.12471976	      1.12083574	      8.67672295	     -7.40501041	     -0.12924181	     15.90184587	      0.00000000	      0.00000000	     37.84247134	     -8.28357005	     -4.34394410	      4.66131325	      0.08135526	     -1.89954060	      0.00000000	      0.00000000	     -4.15403909	      2.28260370	      5.95055150	      0.00000000	      0.00000000	      0.00000000	      0.00000000	      0.00000000	      0.00000000	      0.00000000	      0.00000000	      0.00000000	      0.00000000	      0.00000000	      0.00000000	      0.00000000	      0.00000000
      0.17000000	      1.31152325	     -7.43537555	     81.45460151	      0.23694820	      0.87085419	      1.93648197	    -18.99950921	      0.89659593	      8.75028909	     -6.92255892	     -0.12082145	     16.42852064	      0.00000000	      0.00000000	     37.70401301	     -8.10911716	     -3.97920142	      3.78270081	      0.06602058	     -1.63285178	     -0.00000000	     -0.00000000	     -4.13773844	      2.14846086	      6.01293517	     -0.00000000	     -0.00000000	      0.00000000	      0.00000000	      0.00000000	      0.00000000	      0.00000000	     -0.00000000	     -0.00000000	      0.00000000	      0.00000000	      0.00000000	      0.00000000	      0.00000000
      0.18000000	      1.27460551	     -7.42235304	     81.37185613	      0.23610107	      0.86766004	      1.92158782	    -19.70078630	      0.62784977	      8.87575452	     -6.20581427	     -0.10831189	     16.85744085	      0.00000000	      0.00000000	     37.72458695	     -7.86899289	     -3.85589084	      3.56158030	      0.06216130	     -1.44950000	      0.00000000	      0.00000000	     -4.08199913	      1.98722129	      6.02240383	      0.00000000	      0.00000000	      0.00000000	      0.00000000	      0.00000000	      0.00000000	      0.00000000	      0.00000000	      0.00000000	      0.00000000	      0.00000000	      0.00000000	      0.00000000	      0.00000000
      0.19000000	      1.13998624	     -7.35216248	     81.24443774	      0.23527500	      0.86487751	      1.90646402	    -20.34315909	      0.24378207	      8.90047299	     -5.29711785	     -0.09245215	     17.24318317	      0.00000000	      0.00000000	     37.74054451	     -7.56029693	     -3.95436192	      3.87493051	      0.06763030	     -1.49858495	      0.00000000	      0.00000000	     -4.04329714	      1.66187172	      6.06129750	      0.00000000	      0.00000000	      0.00000000	      0.00000000	      0.00000000	      0.00000000	      0.00000000	      0.00000000	      0.00000000	      0.00000000	      0.00000000	      0.00000000	      0.00000000	      0.00000000
      0.20000000	      0.97790979	     -7.30839798	     81.16998305	      0.23419237	      0.86241447	      1.89124528	    -20.83044281	     -0.15465484	      8.94202623	     -4.18965640	     -0.07312330	     17.42407745	      0.00000000	      0.00000000	     37.90681129	     -7.18929673	     -4.11886250	      4.75095534	      0.08291981	     -1.84784383	      0.00000000	      0.00000000	     -3.97888608	      1.33955574	      6.07885098	      0.00000000	      0.00000000	      0.00000000	      0.00000000	      0.00000000	      0.00000000	      0.00000000	      0.00000000	      0.00000000	      0.00000000	      0.00000000	      0.00000000	      0.00000000	      0.00000000
      0.21000000	      0.79309185	     -7.33234079	     81.05803220	      0.23302808	      0.86030852	      1.87598242	    -21.05584260	     -0.58565082	      9.10827020	     -2.80415136	     -0.04894167	     17.00817154	      0.00000000	      0.00000000	     38.12876828	     -6.80898899	     -3.98399946	      5.91614669	      0.10325624	     -2.30557819	      0.00000000	      0.00000000	     -3.84065431	      0.98794895	      6.19370135	      0.00000000	      0.00000000	      0.00000000	      0.00000000	      0.00000000	      0.00000000	      0.00000000	      0.00000000	      0.00000000	      0.00000000	      0.00000000	      0.00000000	      0.00000000	      0.00000000
